<svg width="26" height="29" viewBox="0 0 26 29" fill="none" xmlns="http://www.w3.org/2000/svg">
<path d="M0 4.60034C0 2.6008 1.52682 0.979858 3.41025 0.979858H22.1667C24.0501 0.979858 25.5769 2.6008 25.5769 4.60034V24.513C25.5769 26.5125 24.0501 28.1335 22.1667 28.1335H3.41025C1.52682 28.1335 0 26.5125 0 24.513V4.60034Z" fill="#7D28F7"/>
<path fill-rule="evenodd" clip-rule="evenodd" d="M14.1216 22.5396V15.1531H16.0422L16.2968 12.6077H14.1216L14.1249 11.3336C14.1249 10.6698 14.1843 10.314 15.0825 10.314H16.2832V7.76831H14.3623C12.055 7.76831 11.2429 9.00312 11.2429 11.0797V12.6079H9.80469V15.1534H11.2429V22.5396H14.1216Z" fill="white"/>
</svg>
