<svg width="27" height="29" viewBox="0 0 27 29" fill="none" xmlns="http://www.w3.org/2000/svg">
<path d="M0.807861 4.60034C0.807861 2.6008 2.33468 0.979858 4.21812 0.979858H22.9745C24.8579 0.979858 26.3848 2.6008 26.3848 4.60034V24.513C26.3848 26.5125 24.8579 28.1335 22.9745 28.1335H4.21812C2.33468 28.1335 0.807861 26.5125 0.807861 24.513V4.60034Z" fill="#7D28F7"/>
<path fill-rule="evenodd" clip-rule="evenodd" d="M13.5969 12.1431C14.8525 12.1431 15.8705 13.2236 15.8705 14.5567C15.8705 15.8897 14.8525 16.9704 13.5969 16.9704C12.3412 16.9704 11.3234 15.8897 11.3234 14.5567C11.3234 13.2236 12.3412 12.1431 13.5969 12.1431V12.1431Z" fill="#7D28F7"/>
<path fill-rule="evenodd" clip-rule="evenodd" d="M13.5969 7.31567C11.7445 7.31567 11.5121 7.32427 10.7845 7.35942C10.0584 7.39472 9.56281 7.51676 9.12914 7.69583C8.68054 7.88078 8.30001 8.12818 7.9209 8.53081C7.54151 8.93329 7.30847 9.33728 7.13369 9.81338C6.9646 10.2739 6.8495 10.8003 6.81682 11.5708C6.78428 12.3432 6.77576 12.5902 6.77576 14.5567C6.77576 16.5233 6.784 16.7693 6.81696 17.5417C6.85036 18.3126 6.96531 18.8387 7.13384 19.2991C7.30819 19.7754 7.54122 20.1794 7.92048 20.5819C8.29944 20.9847 8.67997 21.2327 9.12828 21.4176C9.56224 21.5967 10.058 21.7187 10.784 21.754C11.5115 21.7892 11.7438 21.7978 13.596 21.7978C15.4485 21.7978 15.6803 21.7892 16.4078 21.754C17.1339 21.7187 17.6301 21.5967 18.0641 21.4176C18.5125 21.2327 18.8925 20.9847 19.2715 20.5819C19.6509 20.1794 19.8839 19.7754 20.0587 19.2993C20.2263 18.8387 20.3414 18.3124 20.3755 17.5418C20.4082 16.7695 20.4167 16.5233 20.4167 14.5567C20.4167 12.5902 20.4082 12.3434 20.3755 11.571C20.3414 10.8001 20.2263 10.2739 20.0587 9.81353C19.8839 9.33728 19.6509 8.93329 19.2715 8.53081C18.8921 8.12803 18.5127 7.88063 18.0637 7.69583C17.6288 7.51676 17.1329 7.39472 16.4068 7.35942C15.6793 7.32427 15.4477 7.31567 13.5948 7.31567H13.5969Z" fill="white"/>
<path fill-rule="evenodd" clip-rule="evenodd" d="M12.9851 8.62065C13.1039 8.62045 13.2317 8.62051 13.3697 8.62057L13.597 8.62065C15.4181 8.62065 15.634 8.62759 16.3531 8.66228C17.0181 8.69456 17.379 8.81253 17.6195 8.91165C17.9378 9.04289 18.1647 9.19978 18.4033 9.45321C18.642 9.70665 18.7898 9.94802 18.9137 10.2859C19.007 10.5409 19.1183 10.9241 19.1486 11.6301C19.1812 12.3934 19.1884 12.6227 19.1884 14.5551C19.1884 16.4876 19.1812 16.7169 19.1486 17.4802C19.1182 18.1862 19.007 18.5694 18.9137 18.8243C18.7901 19.1622 18.642 19.4029 18.4033 19.6561C18.1645 19.9096 17.9379 20.0665 17.6195 20.1977C17.3793 20.2973 17.0181 20.4149 16.3531 20.4472C15.6341 20.4819 15.4181 20.4895 13.597 20.4895C11.7757 20.4895 11.5599 20.4819 10.8409 20.4472C10.1759 20.4146 9.81495 20.2967 9.57438 20.1976C9.25609 20.0663 9.02873 19.9094 8.79001 19.656C8.55129 19.4026 8.40351 19.1618 8.2796 18.8237C8.18624 18.5688 8.07498 18.1856 8.04471 17.4796C8.01203 16.7163 8.00549 16.487 8.00549 14.5533C8.00549 12.6197 8.01203 12.3916 8.04471 11.6282C8.07512 10.9222 8.18624 10.5391 8.2796 10.2838C8.40322 9.94591 8.55129 9.70454 8.79001 9.4511C9.02873 9.19767 9.25609 9.04078 9.57438 8.90923C9.81481 8.80967 10.1759 8.692 10.8409 8.65957C11.4701 8.6294 11.7139 8.62034 12.9851 8.61884V8.62065ZM17.2377 9.82299C16.7858 9.82299 16.4192 10.2117 16.4192 10.6916C16.4192 11.1713 16.7858 11.5605 17.2377 11.5605C17.6895 11.5605 18.0562 11.1713 18.0562 10.6916C18.0562 10.2119 17.6895 9.82269 17.2377 9.82269V9.82299ZM10.0944 14.5568C10.0944 12.5032 11.6626 10.8383 13.5969 10.8382C15.5312 10.8382 17.0991 12.5032 17.0991 14.5568C17.0991 16.6104 15.5314 18.2746 13.597 18.2746C11.6627 18.2746 10.0944 16.6104 10.0944 14.5568Z" fill="#7D28F7"/>
</svg>
