<svg width="26" height="29" viewBox="0 0 26 29" fill="none" xmlns="http://www.w3.org/2000/svg">
<path d="M0.423096 4.60034C0.423096 2.6008 1.94992 0.979858 3.83335 0.979858H22.5897C24.4732 0.979858 26 2.6008 26 4.60034V24.513C26 26.5125 24.4732 28.1335 22.5897 28.1335H3.83335C1.94992 28.1335 0.423096 26.5125 0.423096 24.513V4.60034Z" fill="#7D28F7"/>
<path fill-rule="evenodd" clip-rule="evenodd" d="M9.46057 12.2247H6.5625V21.4692H9.46057V12.2247Z" fill="white"/>
<path fill-rule="evenodd" clip-rule="evenodd" d="M9.65137 9.36511C9.63256 8.45869 9.02201 7.76831 8.03058 7.76831C7.03915 7.76831 6.39099 8.45869 6.39099 9.36511C6.39099 10.2528 7.02 10.963 7.99296 10.963H8.01148C9.02201 10.963 9.65137 10.2528 9.65137 9.36511Z" fill="white"/>
<path fill-rule="evenodd" clip-rule="evenodd" d="M19.9125 16.1688C19.9125 13.3292 18.4827 12.0077 16.5756 12.0077C15.0369 12.0077 14.348 12.905 13.9633 13.5344V12.225H11.0648C11.103 13.0925 11.0648 21.4695 11.0648 21.4695H13.9633V16.3066C13.9633 16.0303 13.9821 15.7547 14.0588 15.5569C14.2682 15.0049 14.7451 14.4335 15.5458 14.4335C16.5949 14.4335 17.0143 15.2812 17.0143 16.5235V21.4693H19.9124L19.9125 16.1688Z" fill="white"/>
</svg>
