<svg width="27" height="29" viewBox="0 0 27 29" fill="none" xmlns="http://www.w3.org/2000/svg">
<path d="M0.615479 4.60034C0.615479 2.6008 2.1423 0.979858 4.02573 0.979858H22.7821C24.6656 0.979858 26.1924 2.6008 26.1924 4.60034V24.513C26.1924 26.5125 24.6656 28.1335 22.7821 28.1335H4.02573C2.1423 28.1335 0.615479 26.5125 0.615479 24.513V4.60034Z" fill="#7D28F7"/>
<path fill-rule="evenodd" clip-rule="evenodd" d="M13.0211 12.0152L13.0479 12.485L12.6007 12.4275C10.9726 12.207 9.55033 11.4592 8.34273 10.2032L7.75234 9.58L7.60027 10.0402C7.27824 11.0661 7.48399 12.1495 8.15488 12.8781C8.51269 13.2808 8.43218 13.3383 7.81496 13.0986C7.60027 13.0219 7.41242 12.9644 7.39453 12.9932C7.33192 13.0603 7.5466 13.9327 7.71656 14.2779C7.94914 14.7573 8.42324 15.227 8.94206 15.5051L9.38038 15.7256L8.86155 15.7352C8.36062 15.7352 8.34273 15.7448 8.3964 15.9461C8.5753 16.5693 9.28198 17.2308 10.0692 17.5185L10.6238 17.7198L10.1407 18.0266C9.4251 18.4676 8.58425 18.7169 7.7434 18.7361C7.34086 18.7457 7.00989 18.784 7.00989 18.8128C7.00989 18.9087 8.10121 19.4456 8.73632 19.6565C10.6417 20.2797 12.9048 20.0112 14.6044 18.947C15.812 18.1896 17.0196 16.6844 17.5832 15.227C17.8873 14.4505 18.1914 13.0315 18.1914 12.3508C18.1914 11.9098 18.2183 11.8522 18.7192 11.3249C19.0144 11.0181 19.2917 10.6826 19.3454 10.5867C19.4348 10.4045 19.4259 10.4045 18.9697 10.5675C18.2093 10.8551 18.102 10.8168 18.4777 10.3854C18.755 10.0786 19.086 9.52248 19.086 9.35949C19.086 9.33073 18.9518 9.37866 18.7997 9.46495C18.6387 9.56083 18.2809 9.70464 18.0125 9.79093L17.5295 9.95392L17.0912 9.63753C16.8496 9.46495 16.5097 9.2732 16.3308 9.21568C15.8746 9.08145 15.1769 9.10063 14.7654 9.25403C13.6473 9.68546 12.9406 10.7976 13.0211 12.0152Z" fill="white"/>
</svg>
