<svg width="22" height="23" viewBox="0 0 22 23" fill="none" xmlns="http://www.w3.org/2000/svg">
<path d="M18.8098 3.24265C16.7198 1.17051 13.9698 0 11.0411 0C2.63538 0 -2.64272 9.3406 1.55465 16.7708L0 22.5641L5.80701 21.0109C8.33698 22.4127 10.4095 22.2886 11.0466 22.3714C20.7934 22.3714 25.6453 10.277 18.796 3.27932L18.8098 3.24265Z" fill="#ECEFF1"/>
<path d="M11.0619 20.4499L11.0564 20.449H11.0418C8.12497 20.449 6.2614 19.0321 6.07807 18.9503L2.64062 19.867L3.56185 16.4401L3.34277 16.0875C2.43529 14.6058 1.95312 12.8994 1.95312 11.1422C1.95312 2.8753 11.8026 -1.25863 17.5023 4.58453C23.1884 10.3666 19.1963 20.4499 11.0619 20.4499Z" fill="#1ABB59"/>
<path d="M16.0481 13.4514L16.0398 13.5219C15.7639 13.3809 14.4201 12.7068 14.1699 12.6137C13.6079 12.4003 13.7665 12.5798 12.6876 13.8472C12.5272 14.0305 12.3677 14.0446 12.0955 13.9177C11.8205 13.7767 10.9377 13.4805 9.89274 12.5215C9.07875 11.7741 8.53242 10.8574 8.37109 10.5754C8.10251 10.0997 8.66442 10.032 9.17591 9.03915C9.26758 8.84171 9.22083 8.68658 9.153 8.5465C9.08425 8.40547 8.537 7.02342 8.30784 6.47248C8.08784 5.92342 7.86143 5.99299 7.69185 5.99299C7.16386 5.94598 6.77794 5.95351 6.43786 6.31641C4.95838 7.98427 5.33146 9.70479 6.59736 11.5344C9.08517 14.8738 10.4106 15.4887 12.8343 16.3424C13.4888 16.5558 14.0855 16.5257 14.5576 16.4562C15.0838 16.3706 16.1773 15.7783 16.4056 15.1155C16.6393 14.4527 16.6393 13.9027 16.5706 13.7757C16.5027 13.6488 16.3231 13.5783 16.0481 13.4514Z" fill="#FAFAFA"/>
</svg>
